# xmcd
#
# Track frame offsets:
#	150
#	16462
#	31230
#	40953
#	58875
#	76182
#	91465
#	105400
#	116432
#	130869
#	148495
#	173343
#	189075
#	205195
#	219745
#	235540
#	249916
#	263851
#	278719
#	284669
#	298783
#	309815
#	325927
#	336922
#
# Disc length: 4694 seconds
#
# Revision: 0
# Processed by: cddbd v1.5.1PL0 Copyright (c) Steve Scherf et al.
# Submitted via: dBpowerAMP V4.0
#
DISCID=59125418
DTITLE=Jack Johnson - Bushfire Fairytales - In Between Dreams
DYEAR=1900
DGENRE=Blues
TTITLE0=Inaudible Melodies
TTITLE1=Middle Man
TTITLE2=Sexy Plexi
TTITLE3=Bubble Toes
TTITLE4=Fortune Fool
TTITLE5=Drink The Water
TTITLE6=Mudfootball
TTITLE7=If I Could
TTITLE8=F-Stop Blues
TTITLE9=Losing Hope
TTITLE10=It's All Understood
TTITLE11=Better Together
TTITLE12=Never Known
TTITLE13=Banana Pancakes
TTITLE14=Good People
TTITLE15=No Other Way
TTITLE16=Sitting, Waiting, Wishing
TTITLE17=Staple it Together
TTITLE18=Situations
TTITLE19=Crying Shame
TTITLE20=If I Could
TTITLE21=Breakdown
TTITLE22=Di You Remember
TTITLE23=Constellations
EXTD=
EXTT0=
EXTT1=
EXTT2=
EXTT3=
EXTT4=
EXTT5=
EXTT6=
EXTT7=
EXTT8=
EXTT9=
EXTT10=
EXTT11=
EXTT12=
EXTT13=
EXTT14=
EXTT15=
EXTT16=
EXTT17=
EXTT18=
EXTT19=
EXTT20=
EXTT21=
EXTT22=
EXTT23=
PLAYORDER=
